<svg xmlns="http://www.w3.org/2000/svg" xmlns:xlink="http://www.w3.org/1999/xlink" width="98" height="98" viewBox="0 0 98 98">
  <defs>
    <clipPath id="clip-path">
      <rect id="Rectángulo_467386" data-name="Rectángulo 467386" width="52.949" height="52.945" fill="#fff"/>
    </clipPath>
  </defs>
  <g id="Grupo_1212388" data-name="Grupo 1212388" transform="translate(-289.609 -11611.898)">
    <g id="Grupo_1177473" data-name="Grupo 1177473" transform="translate(289.609 11611.898)">
      <ellipse id="Elipse_13609" data-name="Elipse 13609" cx="49" cy="49" rx="49" ry="49" transform="translate(0)" fill="#7a4f1e"/>
      <g id="Grupo_1212943" data-name="Grupo 1212943" transform="translate(22.526 22.527)">
        <g id="Grupo_1212942" data-name="Grupo 1212942" clip-path="url(#clip-path)">
          <path id="Trazado_1285628" data-name="Trazado 1285628" d="M38.627,52.944H3.157A3.148,3.148,0,0,1,0,49.784V3.158A3.094,3.094,0,0,1,2.993.025L38.533,0a3.172,3.172,0,0,1,3.247,3.232l-.011,46.613a3.122,3.122,0,0,1-3.142,3.1M39.709,2.074H2.067V50.88H39.709Z" transform="translate(0 0)" fill="#fff"/>
          <path id="Trazado_1285629" data-name="Trazado 1285629" d="M274.5,62.056l.024,10.577,3.708.043.006-31.632-3.707-.033-.012,11.672a1.038,1.038,0,1,1-2.07.1l.006-15.078a3.929,3.929,0,1,1,7.857.111V73.849l-2.962,6.635a1.062,1.062,0,0,1-.93.652,1.02,1.02,0,0,1-.983-.61l-2.987-6.634.009-11.834a.994.994,0,0,1,.98-.955.982.982,0,0,1,1.062.953m3.685-23.147a4.491,4.491,0,0,0-.009-1.627,1.841,1.841,0,0,0-3.6.038,4.893,4.893,0,0,0-.011,1.6Zm-.544,35.864a12.955,12.955,0,0,0-2.5-.012,26.605,26.605,0,0,0,1.232,2.734Z" transform="translate(-227.366 -28.199)" fill="#fff"/>
          <path id="Trazado_1285630" data-name="Trazado 1285630" d="M274.583,171.7a1.02,1.02,0,1,1-1.02-1.02,1.02,1.02,0,0,1,1.02,1.02" transform="translate(-227.442 -142.431)" fill="#fff"/>
          <path id="Trazado_1285631" data-name="Trazado 1285631" d="M42.184,140.781a1.037,1.037,0,0,1,.008,1.37,1.023,1.023,0,0,1-1.4.105l-2.67-2.6-2.671,2.6a1.015,1.015,0,0,1-1.427-1.431l2.6-2.668-2.6-2.668a1.025,1.025,0,0,1,.094-1.4,1.1,1.1,0,0,1,1.511.106l2.491,2.466,2.58-2.538a1.053,1.053,0,0,1,1.486.031,1.137,1.137,0,0,1-.181,1.6c-.814.787-1.586,1.545-2.387,2.4Z" transform="translate(-28.197 -111.686)" fill="#fff"/>
          <path id="Trazado_1285632" data-name="Trazado 1285632" d="M42.184,225.781a1.038,1.038,0,0,1,.008,1.37,1.024,1.024,0,0,1-1.4.105l-2.67-2.6-2.671,2.6a1.015,1.015,0,0,1-1.427-1.431l2.6-2.668-2.6-2.667a1.025,1.025,0,0,1,.094-1.4,1.1,1.1,0,0,1,1.511.106l2.491,2.465,2.58-2.537a1.053,1.053,0,0,1,1.486.031,1.137,1.137,0,0,1-.182,1.6c-.814.787-1.586,1.545-2.387,2.4Z" transform="translate(-28.197 -182.62)" fill="#fff"/>
          <path id="Trazado_1285633" data-name="Trazado 1285633" d="M130.191,90.88H114.9a.974.974,0,0,1-1.015-.941.94.94,0,0,1,.85-1.066l15.379-.023a1.017,1.017,0,1,1,.078,2.03" transform="translate(-95.037 -74.147)" fill="#fff"/>
          <path id="Trazado_1285634" data-name="Trazado 1285634" d="M130.191,175.88H114.9a.974.974,0,0,1-1.015-.941.94.94,0,0,1,.85-1.065l15.379-.023a1.017,1.017,0,1,1,.078,2.03" transform="translate(-95.037 -145.081)" fill="#fff"/>
          <path id="Trazado_1285635" data-name="Trazado 1285635" d="M130.191,260.88H114.9a.973.973,0,0,1-1.015-.941.939.939,0,0,1,.85-1.066l15.379-.023a1.017,1.017,0,1,1,.078,2.03" transform="translate(-95.037 -216.015)" fill="#fff"/>
          <path id="Trazado_1285636" data-name="Trazado 1285636" d="M36.416,68.166l-2.284-2.249a1.058,1.058,0,0,1-.056-1.413c1.054-1.176,2.111.763,2.949,1.339l3.8-3.749a1.021,1.021,0,0,1,1.437,1.436l-4.528,4.552a1.015,1.015,0,0,1-1.322.084" transform="translate(-28.234 -51.629)" fill="#fff"/>
          <path id="Trazado_1285637" data-name="Trazado 1285637" d="M121.759,50.9h-6.876a.971.971,0,0,1-1.006-.937.937.937,0,0,1,.843-1.062l7.257-.023a1.045,1.045,0,0,1,.773,1.071.99.99,0,0,1-.992.95" transform="translate(-95.031 -40.791)" fill="#fff"/>
          <path id="Trazado_1285638" data-name="Trazado 1285638" d="M121.758,135.9h-6.876a.972.972,0,0,1-1.006-.937.937.937,0,0,1,.843-1.062l7.257-.023a1.045,1.045,0,0,1,.773,1.071.99.99,0,0,1-.992.95" transform="translate(-95.03 -111.725)" fill="#fff"/>
          <path id="Trazado_1285639" data-name="Trazado 1285639" d="M121.758,220.9h-6.876a.972.972,0,0,1-1.006-.937.937.937,0,0,1,.843-1.062l7.258-.023a1.044,1.044,0,0,1,.773,1.071.99.99,0,0,1-.992.95" transform="translate(-95.03 -182.66)" fill="#fff"/>
          <path id="Trazado_1285640" data-name="Trazado 1285640" d="M188.716,50.86l-3.746,0a.992.992,0,0,1-.98-1.093,1.024,1.024,0,0,1,1.15-.936l3.491,0a1.026,1.026,0,0,1,1.094.945,1,1,0,0,1-1.008,1.083" transform="translate(-153.541 -40.751)" fill="#fff"/>
          <path id="Trazado_1285641" data-name="Trazado 1285641" d="M188.716,135.86l-3.746,0a.992.992,0,0,1-.98-1.093,1.024,1.024,0,0,1,1.15-.936l3.491,0a1.026,1.026,0,0,1,1.094.945,1,1,0,0,1-1.008,1.083" transform="translate(-153.541 -111.685)" fill="#fff"/>
          <path id="Trazado_1285642" data-name="Trazado 1285642" d="M188.716,220.86l-3.746,0a.992.992,0,0,1-.98-1.093,1.024,1.024,0,0,1,1.15-.936l3.491,0a1.025,1.025,0,0,1,1.094.945,1,1,0,0,1-1.009,1.083" transform="translate(-153.541 -182.619)" fill="#fff"/>
        </g>
      </g>
    </g>
  </g>
</svg>
