<svg xmlns="http://www.w3.org/2000/svg" xmlns:xlink="http://www.w3.org/1999/xlink" width="292" height="165.629" viewBox="0 0 292 165.629">
  <defs>
    <clipPath id="clip-path">
      <rect id="Rectángulo_467358" data-name="Rectángulo 467358" width="274.451" height="165.629" fill="none"/>
    </clipPath>
  </defs>
  <g id="Grupo_1212905" data-name="Grupo 1212905" transform="translate(-186 -2540)">
    <rect id="Rectángulo_466807" data-name="Rectángulo 466807" width="292" height="165" transform="translate(186 2540)" fill="none"/>
    <g id="Grupo_1212904" data-name="Grupo 1212904" transform="translate(195 2540)">
      <g id="Grupo_1212903" data-name="Grupo 1212903" clip-path="url(#clip-path)">
        <path id="Trazado_1285415" data-name="Trazado 1285415" d="M197.372,157.939C152.418,162.4,42.457,172.571,27.86,136.757,2.11,73.582,113.965,18.27,150.812,11.151c30.3-5.854,106.87-19.078,87.395,52.992-13.286,49.162,27.906,17.388,44.474,40.152,16.288,22.378-6.657,45.837-85.31,53.644" transform="translate(-13.164 -3.43)" fill="#f1e2ff"/>
        <path id="Trazado_1285416" data-name="Trazado 1285416" d="M237.218,48.826a5.633,5.633,0,1,1-5.385-5.869,5.619,5.619,0,0,1,5.385,5.869" transform="translate(-123.68 -23.51)" fill="#cf9eff"/>
        <path id="Trazado_1285417" data-name="Trazado 1285417" d="M227.386,21.945a7.641,7.641,0,0,1-2.36-6.542c.22-1.421,4.222-3.9,4.222-3.9L223.28,5.019s-2.8,3.8-4.234,3.894a7.16,7.16,0,0,1-6-2.794c-.844-1.163.253-5.74.253-5.74L204.479,0s.69,4.659-.245,5.739a6.127,6.127,0,0,1-5.513,1.876c-1.411-.282-3.692-4.4-3.692-4.4l-6.755,5.672s3.656,2.964,3.7,4.4a8.112,8.112,0,0,1-3.238,6.5c-1.174.835-5.748-.32-5.748-.32l-.492,8.809s4.658-.64,5.724.314a7.634,7.634,0,0,1,2.361,6.543c-.216,1.419-4.222,3.9-4.222,3.9l5.968,6.483s2.8-3.789,4.233-3.89a7.2,7.2,0,0,1,6,2.791c.846,1.167-.241,5.739-.241,5.739l8.809.381s-.7-4.657.241-5.738a6.143,6.143,0,0,1,5.523-1.877c1.4.287,3.689,4.4,3.689,4.4l6.752-5.675s-3.656-2.961-3.7-4.4a8.11,8.11,0,0,1,3.241-6.5c1.175-.831,5.748.326,5.748.326l.487-8.809s-4.653.632-5.727-.32M207.178,39.665A14.608,14.608,0,1,1,222.4,25.7a14.606,14.606,0,0,1-15.224,13.963" transform="translate(-99.889)" fill="#cf9eff"/>
        <path id="Trazado_1285418" data-name="Trazado 1285418" d="M50.655,191.86l.146-6.477-7.737-1.927a1.8,1.8,0,0,1-1.237-1.133q-.177-.466-.38-.92a1.726,1.726,0,0,1,.126-1.677L46,173.193l-4.436-4.722-6.791,4a2.085,2.085,0,0,1-1.951.062q-.628-.292-1.282-.536a2.088,2.088,0,0,1-1.338-1.482l-1.74-7.722H21.979l-1.744,7.735a2.258,2.258,0,0,1-1.349,1.617q-.431.17-.851.363a2.256,2.256,0,0,1-2.081-.133l-6.63-3.908-4.436,4.722,4.079,6.028a2.634,2.634,0,0,1,.248,2.5q-.046.109-.091.219a2.633,2.633,0,0,1-1.92,1.588L.146,184.952,0,191.429l7.54,1.878a2.224,2.224,0,0,1,1.51,1.371l.013.033a2.213,2.213,0,0,1-.191,2.07L4.7,202.942l4.436,4.721,6.26-3.689a2.024,2.024,0,0,1,1.968-.022q.551.285,1.123.531a2.02,2.02,0,0,1,1.2,1.4l1.631,7.236h6.478l1.483-6.584a1.967,1.967,0,0,1,1.361-1.428,17.332,17.332,0,0,0,1.716-.637,1.955,1.955,0,0,1,1.778.085l6.426,3.787,4.435-4.722-3.731-5.513a2.043,2.043,0,0,1-.109-2.058q.335-.682.613-1.4a2.044,2.044,0,0,1,1.486-1.3Zm-22.974,7.982a11.662,11.662,0,1,1,9.156-9.155,11.673,11.673,0,0,1-9.156,9.155" transform="translate(0 -89.108)" fill="#cf9eff"/>
        <path id="Trazado_1285419" data-name="Trazado 1285419" d="M164.274,73.913H23.022a.908.908,0,0,1-.905-.905v-13.3a.908.908,0,0,1,.905-.905H164.274a.908.908,0,0,1,.905.905v13.3a.908.908,0,0,1-.905.905" transform="translate(-12.106 -32.185)" fill="#6489d0"/>
        <path id="Trazado_1285420" data-name="Trazado 1285420" d="M40.021,68.949a3.487,3.487,0,1,1-4.1-2.733,3.487,3.487,0,0,1,4.1,2.733" transform="translate(-18.125 -36.206)" fill="#fff"/>
        <path id="Trazado_1285421" data-name="Trazado 1285421" d="M47.176,78.231h0a.8.8,0,0,1-1.132.086l-4.227-3.632a.8.8,0,1,1,1.046-1.218L47.09,77.1a.8.8,0,0,1,.086,1.132" transform="translate(-22.737 -40.107)" fill="#fff"/>
        <path id="Trazado_1285422" data-name="Trazado 1285422" d="M40.292,70.619a2.3,2.3,0,1,1-2.707-1.8,2.3,2.3,0,0,1,2.707,1.8" transform="translate(-19.562 -37.643)" fill="#6489d0"/>
        <path id="Trazado_1285423" data-name="Trazado 1285423" d="M359.293,43.013l-13.652-.429L352,57.572Z" transform="translate(-189.191 -23.309)" fill="#ffa60e"/>
        <path id="Trazado_1285424" data-name="Trazado 1285424" d="M212.378,319.343l-35.48.179,4.807-4.069L176.9,304.946V286.792h35.48l.835,21.358,5.738,6.156Z" transform="translate(-96.827 -156.979)" fill="#a2726e"/>
        <path id="Trazado_1285425" data-name="Trazado 1285425" d="M168.338,307.45h0a2.511,2.511,0,0,1-2.5-2.5V289.3a2.5,2.5,0,1,1,5.008,0v15.65a2.512,2.512,0,0,1-2.5,2.5" transform="translate(-90.771 -156.979)" fill="#412121"/>
        <path id="Trazado_1285426" data-name="Trazado 1285426" d="M181.938,338.941h0a2.512,2.512,0,0,1-3.541,0L167,326.971c-.974-.974-.648-1.663.326-2.637a2.512,2.512,0,0,1,3.541,0l10.927,10.64a3.064,3.064,0,0,1,.139,3.967" transform="translate(-91.09 -177.128)" fill="#412121"/>
        <path id="Trazado_1285427" data-name="Trazado 1285427" d="M159.776,352.794H132.024a2.608,2.608,0,0,1,0-5.217h27.752a2.608,2.608,0,1,1,0,5.217" transform="translate(-70.837 -190.25)" fill="#412121"/>
        <path id="Trazado_1285428" data-name="Trazado 1285428" d="M251.316,307.253h0a2.511,2.511,0,0,1-2.5-2.5V289.1a2.5,2.5,0,0,1,5.008,0v15.65a2.511,2.511,0,0,1-2.5,2.5" transform="translate(-136.19 -156.871)" fill="#a2726e"/>
        <path id="Trazado_1285429" data-name="Trazado 1285429" d="M265.139,338.744h0a2.511,2.511,0,0,1-3.541,0l-11.066-11.066a2.5,2.5,0,0,1,3.541-3.541l11.066,10.953a2.65,2.65,0,0,1,0,3.654" transform="translate(-136.731 -177.02)" fill="#a2726e"/>
        <path id="Trazado_1285430" data-name="Trazado 1285430" d="M242.755,352.634H215a2.608,2.608,0,1,1,0-5.216h27.752a2.608,2.608,0,1,1,0,5.216" transform="translate(-116.257 -190.163)" fill="#a2726e"/>
        <path id="Trazado_1285431" data-name="Trazado 1285431" d="M195.22,191.068a6.045,6.045,0,0,1-6.038,6.05H62.158a6.047,6.047,0,0,1-6.043-6.05V111.175a6.048,6.048,0,0,1,6.043-6.049H189.183a6.046,6.046,0,0,1,6.038,6.049Z" transform="translate(-30.715 -57.542)" fill="#412121"/>
        <path id="Trazado_1285432" data-name="Trazado 1285432" d="M205.821,191.068a6.045,6.045,0,0,1-6.038,6.05H72.759a6.047,6.047,0,0,1-6.043-6.05V111.175a6.048,6.048,0,0,1,6.043-6.049H199.783a6.046,6.046,0,0,1,6.038,6.049Z" transform="translate(-36.518 -57.542)" fill="#a2726e"/>
        <rect id="Rectángulo_467353" data-name="Rectángulo 467353" width="130.155" height="65.313" transform="translate(34.289 52.23)" fill="#f4e3d9"/>
        <rect id="Rectángulo_467354" data-name="Rectángulo 467354" width="2.335" height="65.313" transform="translate(162.109 52.23)" fill="#e2b89f"/>
        <path id="Trazado_1285433" data-name="Trazado 1285433" d="M72.759,290.078H199.783a6.045,6.045,0,0,0,6.038-6.049V274.96H66.716v9.069a6.047,6.047,0,0,0,6.043,6.049" transform="translate(-36.518 -150.503)" fill="#936563"/>
        <path id="Trazado_1285434" data-name="Trazado 1285434" d="M101.431,206.793a4.369,4.369,0,0,0,4.367,4.375h96.011a4.373,4.373,0,0,0,4.374-4.375V146.585a4.373,4.373,0,0,0-4.374-4.374H105.8a4.369,4.369,0,0,0-4.367,4.374Z" transform="translate(-55.519 -77.841)" fill="#e1f3f9"/>
        <path id="Trazado_1285435" data-name="Trazado 1285435" d="M105.8,142.211h96.011a4.373,4.373,0,0,1,4.374,4.374v8.121H101.431v-8.121a4.369,4.369,0,0,1,4.367-4.374" transform="translate(-55.519 -77.841)" fill="#b7d9f7"/>
        <path id="Trazado_1285436" data-name="Trazado 1285436" d="M309.433,153.479a2.172,2.172,0,1,0,2.174-2.174,2.171,2.171,0,0,0-2.174,2.174" transform="translate(-169.372 -82.819)" fill="#fff"/>
        <path id="Trazado_1285437" data-name="Trazado 1285437" d="M297.31,153.479a2.174,2.174,0,1,0,2.178-2.174,2.175,2.175,0,0,0-2.178,2.174" transform="translate(-162.736 -82.819)" fill="#fff"/>
        <path id="Trazado_1285438" data-name="Trazado 1285438" d="M285.62,153.479a2.171,2.171,0,1,0,2.174-2.174,2.171,2.171,0,0,0-2.174,2.174" transform="translate(-156.337 -82.819)" fill="#fff"/>
        <path id="Rectángulo_467355" data-name="Rectángulo 467355" d="M9.666,0H95.088a9.665,9.665,0,0,1,9.665,9.665V59.294a9.664,9.664,0,0,1-9.664,9.664H9.664A9.664,9.664,0,0,1,0,59.294V9.666A9.666,9.666,0,0,1,9.666,0Z" transform="translate(50.141 64.37)" fill="#fff"/>
        <path id="Trazado_1285439" data-name="Trazado 1285439" d="M115.142,142.211h96.011a4.373,4.373,0,0,1,4.375,4.374v8.121H110.775v-8.121a4.369,4.369,0,0,1,4.367-4.374" transform="translate(-60.634 -77.841)" fill="#c1e3fb"/>
        <path id="Trazado_1285440" data-name="Trazado 1285440" d="M318.777,153.479a2.172,2.172,0,1,0,2.174-2.174,2.171,2.171,0,0,0-2.174,2.174" transform="translate(-174.486 -82.819)" fill="#fff"/>
        <path id="Trazado_1285441" data-name="Trazado 1285441" d="M306.655,153.479a2.174,2.174,0,1,0,2.177-2.174,2.174,2.174,0,0,0-2.177,2.174" transform="translate(-167.851 -82.819)" fill="#fff"/>
        <path id="Trazado_1285442" data-name="Trazado 1285442" d="M294.965,153.479a2.171,2.171,0,1,0,2.174-2.174,2.171,2.171,0,0,0-2.174,2.174" transform="translate(-161.453 -82.819)" fill="#fff"/>
        <path id="Trazado_1285443" data-name="Trazado 1285443" d="M226.527,217.695H126a1.732,1.732,0,0,1,0-3.465H226.527a1.732,1.732,0,1,1,0,3.465" transform="translate(-68.022 -117.261)" fill="#cee8ef"/>
        <path id="Trazado_1285444" data-name="Trazado 1285444" d="M226.527,255.833H126a1.732,1.732,0,0,1,0-3.465H226.527a1.732,1.732,0,1,1,0,3.465" transform="translate(-68.022 -138.137)" fill="#cee8ef"/>
        <path id="Trazado_1285445" data-name="Trazado 1285445" d="M191.179,234.04H126a1.732,1.732,0,1,1,0-3.465h65.175a1.732,1.732,0,0,1,0,3.465" transform="translate(-68.021 -126.208)" fill="#cee8ef"/>
        <path id="Trazado_1285446" data-name="Trazado 1285446" d="M161.2,192.708H123.587a.908.908,0,0,1-.905-.905V181.046a.908.908,0,0,1,.905-.905H161.2a.908.908,0,0,1,.905.905V191.8a.908.908,0,0,1-.905.905" transform="translate(-67.151 -98.602)" fill="#6489d0"/>
        <path id="Trazado_1285447" data-name="Trazado 1285447" d="M276.626,199.321H218.309a2.069,2.069,0,0,1,0-4.139h58.317a2.069,2.069,0,0,1,0,4.139" transform="translate(-118.361 -106.835)" fill="#cee8ef"/>
        <path id="Trazado_1285448" data-name="Trazado 1285448" d="M516.912,115.966s-5.548,12.2,1.422,19.117,21.657,14.014,28.027,6.862-16.242-48.3-29.45-25.979" transform="translate(-281.792 -59.881)" fill="#f1e2ff"/>
        <path id="Trazado_1285449" data-name="Trazado 1285449" d="M312.657,217s-35.221,51.765-45.141,43,28.874-53.233,28.874-53.233Z" transform="translate(-145.54 -113.177)" fill="#cc8b6e"/>
        <path id="Trazado_1285450" data-name="Trazado 1285450" d="M350.5,174.924c12.158,17.164-28.462,39.108-28.462,39.108L309.2,195.3s26.884-40.723,41.3-20.378" transform="translate(-169.245 -92.63)" fill="#ed3748"/>
        <path id="Trazado_1285451" data-name="Trazado 1285451" d="M349.716,176.757c5.054-16.182,29.4-17.016,49.209-14.017,13.351,2.022,21.942,6.356,23.425,23.034.946,10.634-1.123,55.035-7.639,67.352H340.325s-1.408-41.783,9.39-76.369" transform="translate(-186.248 -88.33)" fill="#ed3748"/>
        <path id="Trazado_1285452" data-name="Trazado 1285452" d="M433.314,116.847s-20.4,4.382-19.26,6.048-.85,5.022-.9,8.273c-.066,3.527-2.407,7.261-5.548,10.821-2.2,2.493,1.707,5.472,5.183,6.126,14.974,2.816,24.426-2.78,21.26-7.626-7.114-10.889-.735-23.642-.735-23.642" transform="translate(-222.757 -63.958)" fill="#cc8b6e"/>
        <path id="Trazado_1285453" data-name="Trazado 1285453" d="M417.619,130.754c.051-3.25,2.041-6.608.9-8.273s20.869-6.39,20.869-6.39a15.856,15.856,0,0,0-3.91,8.552c-6.112,8.266-14.832,10.821-20.354,12.972a16.592,16.592,0,0,0,2.494-6.861" transform="translate(-227.224 -63.544)" fill="#8b482a"/>
        <path id="Trazado_1285454" data-name="Trazado 1285454" d="M407.356,61.751c-8.026,6.064-14.872,27.009-6.473,36.986,4.614,5.481,21.4-.34,29.267-12.266,1.024-1.551,3.533-10.42-.659-20.1-1.883-4.382-13.793-10.926-22.135-4.622" transform="translate(-217.326 -32.371)" fill="#cc8b6e"/>
        <path id="Trazado_1285455" data-name="Trazado 1285455" d="M398.383,68.6c.011,1.285,1.8-12.669,9.65-13.614,3.19-.385,2.472,2.977,6.175,3.25,3.162.234,12.64-6.128,8.993,12.707-.176.9.682,1.969,1.1,2.783.518,1-1.091,3.291-1.067,4.416.022,1.086,3.285-2.245,3.219-1.163-.1,1.643-2.937,6.221-.576,6.85,1.144.3,2.538-1.538,3.378-2.158,2.368-1.75,5.008-2.963,7.012-5.2a17.949,17.949,0,0,0,4-8.96,16.941,16.941,0,0,0-.817-9.662,12.47,12.47,0,0,0-7.358-6.727c-1.912-.64-4.093-.7-5.913-1.595-1.609-.788-3.369-.989-4.995-1.78a6.976,6.976,0,0,1-2.611-2.5,9.55,9.55,0,0,0-7.773-3.712,7.938,7.938,0,0,0-6.943,4.833c-.606,1.57-.825,3.571-2.335,4.314-.549.27-1.2.316-1.715.64a3.157,3.157,0,0,0-1.067,1.35,13.156,13.156,0,0,0-.689,8.958,11.582,11.582,0,0,1,.647,3.612c-.079,1.126-.323,2.214-.314,3.359" transform="translate(-217.62 -22.73)" fill="#242236"/>
        <path id="Trazado_1285456" data-name="Trazado 1285456" d="M446.638,112.133s5.794-5.1,8.988-3.631-1.29,10.176-7.888,8.971c-6.583-1.2-2.881-3.962-1.1-5.341" transform="translate(-243.018 -59.245)" fill="#cc8b6e"/>
        <path id="Trazado_1285457" data-name="Trazado 1285457" d="M432.052,110.008c.15-.076-.166.07-.223.089a3.237,3.237,0,0,1-.755.181c-1.009.089-1.465-.577-1.7-1.434-.149-.536-.994-.24-.846.294.523,1.9,2.306,2.462,4.043,1.579.51-.259-.012-.966-.517-.709" transform="translate(-234.549 -59.422)" fill="#1e100c"/>
        <path id="Trazado_1285458" data-name="Trazado 1285458" d="M411.322,103.336a3.051,3.051,0,0,1-.845.549c-.989.425-1.54-.187-1.894-1.067-.21-.518-1.055-.226-.846.295.419,1.038,1.173,1.971,2.453,1.76a3.635,3.635,0,0,0,1.82-.975c.414-.387-.278-.946-.688-.562" transform="translate(-223.161 -56.13)" fill="#1e100c"/>
        <path id="Trazado_1285459" data-name="Trazado 1285459" d="M411.443,92.793a2.669,2.669,0,0,1,3.161,1.844c.244.651,1.224.2.982-.447a3.691,3.691,0,0,0-4.326-2.46.54.54,0,0,0,.184,1.063" transform="translate(-224.873 -50.163)" fill="#552b19"/>
        <path id="Trazado_1285460" data-name="Trazado 1285460" d="M430.313,100.572a2.671,2.671,0,0,1,3.543.92c.412.561,1.233-.14.824-.7a3.69,3.69,0,0,0-4.831-1.2c-.618.315-.155,1.29.464.973" transform="translate(-235.123 -54.271)" fill="#552b19"/>
        <path id="Trazado_1285461" data-name="Trazado 1285461" d="M418.325,102.188a5.4,5.4,0,0,1-.191,2.992c-.562,1.332-2.189,1.77-3.17,2.81-1.348,1.429-.289,2.493,1.548,3.243.445.18.73-.375.287-.555-4.118-1.681,1.084-3.317,1.932-5.021a5.7,5.7,0,0,0,.338-3.523c-.073-.395-.817-.344-.744.053" transform="translate(-226.802 -55.756)" fill="#8b482a"/>
        <path id="Trazado_1285462" data-name="Trazado 1285462" d="M419.064,127.117s-.125,3.709-3.181,3.4-3.036-3.65-3.036-3.65Z" transform="translate(-225.977 -69.44)" fill="#faffff"/>
        <path id="Trazado_1285463" data-name="Trazado 1285463" d="M434.718,123.144a2.094,2.094,0,1,1-1.015-2.783,2.093,2.093,0,0,1,1.015,2.783" transform="translate(-235.762 -65.774)" fill="#c1775d"/>
        <path id="Trazado_1285464" data-name="Trazado 1285464" d="M401.034,110.751a2.12,2.12,0,1,1-.652,2.926,2.12,2.12,0,0,1,.652-2.926" transform="translate(-218.973 -60.44)" fill="#c1775d"/>
        <path id="Trazado_1285465" data-name="Trazado 1285465" d="M493.375,233.648s16.255,60.464,28.5,55.446-9.778-59.765-9.778-59.765Z" transform="translate(-270.055 -125.526)" fill="#cc8b6e"/>
        <path id="Trazado_1285466" data-name="Trazado 1285466" d="M473.3,180.352c-17.124,12.216,14.029,46.29,14.029,46.29l18.276-13.472s-12.009-47.3-32.305-32.817" transform="translate(-256.253 -97.209)" fill="#ed3748"/>
        <path id="Trazado_1285467" data-name="Trazado 1285467" d="M415.643,267.246a4.182,4.182,0,0,1-3.966,3.345H374.554a2.741,2.741,0,0,1-2.785-3.345l9-51.023a4.18,4.18,0,0,1,3.964-3.344h37.124a2.741,2.741,0,0,1,2.786,3.344Z" transform="translate(-203.464 -116.522)" fill="#b7d9f7"/>
        <path id="Trazado_1285468" data-name="Trazado 1285468" d="M419.559,267.246a4.182,4.182,0,0,1-3.966,3.345H378.47a2.741,2.741,0,0,1-2.785-3.345l9-51.023a4.18,4.18,0,0,1,3.964-3.344h37.124a2.741,2.741,0,0,1,2.786,3.344Z" transform="translate(-205.607 -116.522)" fill="#e1f3f9"/>
        <path id="Trazado_1285469" data-name="Trazado 1285469" d="M368.993,273.835a12.436,12.436,0,0,0,.616-2.588,13.859,13.859,0,0,1,2.117-4.182c.475-.707.718-2.93,1.745-2.855,1.681.122.413,3.6.377,4.487a2.256,2.256,0,0,0,.925,2.088,1.757,1.757,0,0,0,1.337-.031A35.3,35.3,0,0,0,380.074,269c.683-.316,1.378-.572,2.078-.836.523-.2,1.141-.71,1.691-.735a.919.919,0,0,1,.9.98c-.044.512-.472.54-.788.741-.708.453-1.4.931-2.1,1.416-.152.106-.91.468-.926.707-.08,1.158,1.965.22,2.295.089a3.717,3.717,0,0,1,2.633-.316.464.464,0,0,1,.3.244.517.517,0,0,1-.227.553c-.9.749-2.036,1.07-2.919,1.845a.6.6,0,0,0-.256.524c.15.878,1.61.608,2.1.57.308-.025.7-.02.855.311a.674.674,0,0,1-.082.662,1.343,1.343,0,0,1-.493.368,12.552,12.552,0,0,1-1.62.826c-.271.094-1.1.287-1.04.755a.37.37,0,0,0,.137.226,1.42,1.42,0,0,0,.826.235.821.821,0,0,1,.721.484.921.921,0,0,1-.445.976,10.868,10.868,0,0,1-3.507,1.4,36.5,36.5,0,0,1-9.1,1.439,6.366,6.366,0,0,1-4.657-1.222,7.447,7.447,0,0,1-1.013-1.188,8.063,8.063,0,0,1-1.059-1.816,3.353,3.353,0,0,1-.168-2.084.564.564,0,0,1,.12-.239.482.482,0,0,1,.288-.11,13.694,13.694,0,0,0,2.349-.414,3.725,3.725,0,0,0,2.017-1.56" transform="translate(-199.305 -144.617)" fill="#cc8b6e"/>
        <path id="Trazado_1285470" data-name="Trazado 1285470" d="M277.056,290.829c-3.07.941-10.077,4.783-9.344,9.707s10.116,9.868,22.321,7.181,30.141-15.043,30.141-15.043l-3.113-7.916s-30.334,3.107-40,6.071" transform="translate(-146.506 -155.866)" fill="#cc8b6e"/>
        <path id="Trazado_1285471" data-name="Trazado 1285471" d="M449.774,276.715a12.406,12.406,0,0,1,.268-2.647,13.865,13.865,0,0,0-.625-4.645c-.216-.824.284-3-.71-3.27-1.628-.437-1.575,3.27-1.831,4.115a2.256,2.256,0,0,1-1.559,1.668,1.758,1.758,0,0,1-1.252-.469,35.37,35.37,0,0,1-3.168-2.957c-.541-.524-1.113-.993-1.688-1.472-.429-.358-.844-1.046-1.355-1.249a.919.919,0,0,0-1.172.629c-.127.5.269.665.5.96.52.66,1.021,1.341,1.515,2.026.109.15.706.741.643.972-.306,1.12-1.928-.439-2.2-.67a3.721,3.721,0,0,0-2.382-1.164.466.466,0,0,0-.368.131.517.517,0,0,0,.033.6c.6,1,1.571,1.68,2.15,2.7a.6.6,0,0,1,.069.579c-.43.78-1.721.046-2.169-.151-.283-.124-.651-.247-.909.013a.674.674,0,0,0-.14.652,1.34,1.34,0,0,0,.345.51,12.523,12.523,0,0,0,1.259,1.312c.225.178.943.632.734,1.054a.368.368,0,0,1-.2.169,1.422,1.422,0,0,1-.857-.05.819.819,0,0,0-.84.22.92.92,0,0,0,.1,1.068,10.854,10.854,0,0,0,2.851,2.478,36.126,36.126,0,0,0,3.345,2.116,36.532,36.532,0,0,0,4.773,2.232,6.37,6.37,0,0,0,4.8.376,7.442,7.442,0,0,0,1.346-.789,8.064,8.064,0,0,0,1.6-1.367,3.351,3.351,0,0,0,.843-1.914.559.559,0,0,0-.034-.265.477.477,0,0,0-.236-.2,13.772,13.772,0,0,1-2.082-1.163,3.721,3.721,0,0,1-1.392-2.136" transform="translate(-237.225 -145.454)" fill="#cc8b6e"/>
        <path id="Trazado_1285472" data-name="Trazado 1285472" d="M497.092,307.562c2.59,1.9,7.946,7.829,5.636,12.239s-12.8,6-23.441-.554-23.523-24.112-23.523-24.112l5.541-6.453s27.628,12.9,35.788,18.88" transform="translate(-249.467 -158.013)" fill="#cc8b6e"/>
        <path id="Trazado_1285473" data-name="Trazado 1285473" d="M572.051,280.788v12.465l13.49-6.232Z" transform="translate(-313.119 -153.692)" fill="#7dbfff"/>
        <path id="Trazado_1285474" data-name="Trazado 1285474" d="M88.213,326.633l-12.458-.391,5.806,13.679Z" transform="translate(-41.465 -178.573)" fill="#ffa60e"/>
        <path id="Trazado_1285476" data-name="Trazado 1285476" d="M105.713,25.144H53.884a.908.908,0,0,1-.905-.905V8.917a.908.908,0,0,1,.905-.905h51.829a.908.908,0,0,1,.905.905V24.239a.908.908,0,0,1-.905.905" transform="translate(-28.999 -4.385)" fill="#c1e3fb"/>
        <path id="Trazado_1285477" data-name="Trazado 1285477" d="M106.512,15.094H63.687a1.025,1.025,0,1,1,0-2.05h42.825a1.025,1.025,0,0,1,0,2.05" transform="translate(-34.299 -7.14)" fill="#e1f3f9"/>
        <path id="Trazado_1285478" data-name="Trazado 1285478" d="M84.175,22.665H63.584a.923.923,0,0,1,0-1.846H84.175a.923.923,0,0,1,0,1.846" transform="translate(-34.298 -11.396)" fill="#e1f3f9"/>
        <path id="Trazado_1285479" data-name="Trazado 1285479" d="M102.8,35.752H63.584a.923.923,0,0,1,0-1.846H102.8a.923.923,0,1,1,0,1.846" transform="translate(-34.298 -18.559)" fill="#e1f3f9"/>
      </g>
    </g>
  </g>
</svg>
