<svg xmlns="http://www.w3.org/2000/svg" xmlns:xlink="http://www.w3.org/1999/xlink" width="80" height="80" viewBox="0 0 80 80">
  <defs>
    <clipPath id="clip-path">
      <rect id="Rectángulo_467380" data-name="Rectángulo 467380" width="53.458" height="53.493" fill="#19538d"/>
    </clipPath>
  </defs>
  <g id="Grupo_1183619" data-name="Grupo 1183619" transform="translate(-705.629 -1685)">
    <g id="Grupo_1178970" data-name="Grupo 1178970" transform="translate(705.629 1685)">
      <path id="Sustracción_110" data-name="Sustracción 110" d="M80,80h0L32.943,80l-1.885-4.512H5.651L3.767,80H0V0H48.35l1.883,4.51H75.644L77.528,0H80V80Z" transform="translate(0)" fill="#ffd470"/>
    </g>
    <path id="Trazado_998456" data-name="Trazado 998456" d="M-3,0H18.647l2.824,6.588H-.176Z" transform="translate(763.217 1685)" fill="#19538d"/>
    <g id="Grupo_1212931" data-name="Grupo 1212931" transform="translate(719.171 1695.44)">
      <g id="Grupo_1212930" data-name="Grupo 1212930" clip-path="url(#clip-path)">
        <path id="Trazado_1285569" data-name="Trazado 1285569" d="M38.165,51.27a2.071,2.071,0,0,1-2.014,2.223l-19-.014a2.03,2.03,0,0,1-1.871-2.127l.007-2.976c.007-2.739,3.343-1.9,4.814-2.108v-3.7L4.137,42.548a4.061,4.061,0,0,1-4.137-4V12.383A4.152,4.152,0,0,1,4.21,8.349c.183-1.613,1.984-.588,2.384-1.407C6.978,6.155,4.908,5.7,5.74,4.5a10.494,10.494,0,0,1,2.9-2.779c1.323-.876,1.7,1.379,2.516.944C12.015,2.2,11.072.455,12.311.2A10,10,0,0,1,16.46.236c1.422.305.152,1.828,1.021,2.439.778.547,1.173-1.815,2.621-.763C21,2.56,22.937,4.454,22.878,5.37c-.042.655-1.368,1.123-1.147,1.827.251.8,1.862-.34,2.314,1.173l25.42.04a4.047,4.047,0,0,1,3.99,4.141l0,25.829A4.1,4.1,0,0,1,49.3,42.552L33.34,42.57l0,3.711,2.867.049a2,2,0,0,1,1.95,2.046ZM15.021,18.794a2.79,2.79,0,0,1,1.316-2.31,2.533,2.533,0,0,1,2.829.719,4.635,4.635,0,0,0,1.673-1.51,2.571,2.571,0,0,1-.627-2.933A2.891,2.891,0,0,1,22.551,11.5a4.574,4.574,0,0,0,.13-2.2,2.546,2.546,0,0,1-2.339-1.33,2.414,2.414,0,0,1,.73-2.692,3.6,3.6,0,0,0-1.518-1.7,2.36,2.36,0,0,1-2.782.647,2.717,2.717,0,0,1-1.178-2.417,4.852,4.852,0,0,0-2.212-.017A3.221,3.221,0,0,1,12.349,4a2.308,2.308,0,0,1-3.08-.491A3.142,3.142,0,0,0,7.574,5.03a2.619,2.619,0,0,1,.807,2.286,2.446,2.446,0,0,1-2.6,1.645,3.862,3.862,0,0,0,.034,2.253,2.822,2.822,0,0,1,2.239,1.22,2.475,2.475,0,0,1-.681,2.853A3.58,3.58,0,0,0,8.92,16.9a2.4,2.4,0,0,1,2.565-.681,3,3,0,0,1,1.3,2.526,3.792,3.792,0,0,0,2.235.045m.417,1.622a8.523,8.523,0,0,1-3.751-.085c-1.2-.265-.012-2.128-1-2.446-.734-.237-1.171,1.677-2.312.928a10.085,10.085,0,0,1-2.771-2.875c-.871-1.287,1.333-1.762.956-2.542s-2.223.174-2.388-1.41A16.153,16.153,0,0,0,4,10.061a2.449,2.449,0,0,0-2.348,2.5l.011,23.251h50.12l-.026-23.585a2.334,2.334,0,0,0-2.113-2.135L24.16,10.086a13.932,13.932,0,0,1-.253,2.374c-.327,1.361-2,.105-2.465,1.012-.4.789,1.057,1.233,1.087,1.952.039.932-2.263,3.106-3.589,3.569-.654.228-1.326-1.566-2.044-1.147-.858.5.4,2.141-1.458,2.57M49.561,40.83c1.731,0,2.544-1.873,2.135-3.326l-49.948,0a2.768,2.768,0,0,0,.485,2.505,2.531,2.531,0,0,0,2.107.868l28.4-.015ZM31.667,42.551H21.776v3.757h9.891ZM16.939,48.013v3.826l19.566.007V48.02Z" transform="translate(0 0)" fill="#19538d"/>
        <path id="Trazado_1285570" data-name="Trazado 1285570" d="M146.339,224.42c-1.158.107-3.478.379-3.406-.868a.782.782,0,0,1,.87-.765h2.428a.784.784,0,0,1,.869.767.8.8,0,0,1-.762.869" transform="translate(-118.296 -184.386)" fill="#19538d"/>
        <path id="Trazado_1285571" data-name="Trazado 1285571" d="M60.545,33.389A5.594,5.594,0,1,1,54.95,27.8a5.594,5.594,0,0,1,5.594,5.594m-1.671,0a3.923,3.923,0,1,0-3.923,3.923,3.923,3.923,0,0,0,3.923-3.923" transform="translate(-40.849 -23.004)" fill="#19538d"/>
        <path id="Trazado_1285572" data-name="Trazado 1285572" d="M173.893,94.857l-17.809,0a2.809,2.809,0,0,1-2.905-2.727l0-15.5a2.777,2.777,0,0,1,2.748-2.733l18.07,0a2.76,2.76,0,0,1,2.712,2.745l.021,15.144a3.009,3.009,0,0,1-2.832,3.066m1.123-15.36c-.037-1.64.6-3.932-1.362-3.93l-17.567.013c-1.8,0-1.194,2.665-1.212,3.913Zm-1.282,13.7a1.366,1.366,0,0,0,1.316-1.4l0-10.629H154.837L154.823,91.8a1.352,1.352,0,0,0,1.44,1.4Z" transform="translate(-126.774 -61.162)" fill="#19538d"/>
        <path id="Trazado_1285573" data-name="Trazado 1285573" d="M212.865,134.161a.94.94,0,0,1-1.074.627.794.794,0,0,1-.587-.972l1.745-6.5a.84.84,0,0,1,1.034-.575.807.807,0,0,1,.547.962Z" transform="translate(-174.779 -104.875)" fill="#19538d"/>
        <path id="Trazado_1285574" data-name="Trazado 1285574" d="M186.758,134.362c.611.983,2.646,1.973,1.794,3a.846.846,0,0,1-1.166.032l-2.411-2.4a.851.851,0,0,1-.04-1.19l2.542-2.446a.817.817,0,0,1,1.169.048c.887.96-1.2,1.977-1.887,2.959" transform="translate(-152.873 -108.529)" fill="#19538d"/>
        <path id="Trazado_1285575" data-name="Trazado 1285575" d="M235.259,137.291a.907.907,0,0,1-1.05.276.788.788,0,0,1-.4-1.073c.515-.791,1.361-1.307,1.924-2.082l-1.945-2a.8.8,0,0,1,.189-1.1.852.852,0,0,1,1.042.043l2.6,2.526c.377.366.128.939-.19,1.253Z" transform="translate(-193.371 -108.554)" fill="#19538d"/>
        <path id="Trazado_1285576" data-name="Trazado 1285576" d="M179.814,91.869l-9.519.024c-.486,0-.639-.606-.6-.941a.787.787,0,0,1,.8-.694l9.007-.006a.848.848,0,0,1,.816.578c.07.269.011,1.038-.509,1.039" transform="translate(-140.442 -74.696)" fill="#19538d"/>
        <path id="Trazado_1285577" data-name="Trazado 1285577" d="M239.3,91.632a2.377,2.377,0,0,1-1.908-.021c-.4-.21-.332-.894-.146-1.154a1.924,1.924,0,0,1,2.257.011.8.8,0,0,1-.2,1.164" transform="translate(-196.233 -74.567)" fill="#19538d"/>
        <path id="Trazado_1285578" data-name="Trazado 1285578" d="M259.989,90.257a.832.832,0,0,1,.342,1.131c-.277.582-2.178.639-2.427-.094a.8.8,0,0,1,.515-1.088,2.577,2.577,0,0,1,1.57.05" transform="translate(-213.408 -74.578)" fill="#19538d"/>
        <path id="Trazado_1285579" data-name="Trazado 1285579" d="M39.483,160.911l-13.831.027a3.508,3.508,0,0,1-3.434-3.632,3.55,3.55,0,0,1,3.588-3.528l13.262-.01a3.569,3.569,0,0,1,3.681,3.367,3.447,3.447,0,0,1-3.266,3.776m-.148-1.652a1.893,1.893,0,0,0-.081-3.779l-13.446-.009a1.9,1.9,0,0,0-1.9,1.991,1.946,1.946,0,0,0,1.9,1.826Z" transform="translate(-18.388 -127.264)" fill="#19538d"/>
        <path id="Trazado_1285580" data-name="Trazado 1285580" d="M53.231,171.475l-7.316.01a.829.829,0,0,1-.859-.777.817.817,0,0,1,.859-.929l7.236,0c.569,0,.95.267.981.782a.84.84,0,0,1-.9.918" transform="translate(-37.287 -140.512)" fill="#19538d"/>
      </g>
    </g>
  </g>
</svg>
