<svg xmlns="http://www.w3.org/2000/svg" xmlns:xlink="http://www.w3.org/1999/xlink" width="150" height="150" viewBox="0 0 150 150">
  <defs>
    <clipPath id="clip-path">
      <rect id="Rectángulo_455533" data-name="Rectángulo 455533" width="149.812" height="143.185" fill="#62249e"/>
    </clipPath>
    <clipPath id="clip-path-2">
      <rect id="Rectángulo_467428" data-name="Rectángulo 467428" width="74.857" height="74.861" fill="#fff"/>
    </clipPath>
  </defs>
  <g id="Grupo_1179083" data-name="Grupo 1179083" transform="translate(-305.059 -10093)">
    <g id="Grupo_1179079" data-name="Grupo 1179079" transform="translate(-78.59 1694.097)">
      <circle id="Elipse_13674" data-name="Elipse 13674" cx="65.5" cy="65.5" r="65.5" transform="translate(393.649 8407.903)" fill="#62249e"/>
      <g id="Grupo_1179062" data-name="Grupo 1179062" transform="translate(383.649 8398.903)">
        <rect id="Rectángulo_455531" data-name="Rectángulo 455531" width="150" height="150" transform="translate(0 0)" fill="none"/>
        <g id="Grupo_1179061" data-name="Grupo 1179061" transform="translate(0.094 3.9)">
          <path id="Trazado_998445" data-name="Trazado 998445" d="M127.367,99.1H96.727l4.153-7.745h30.64Z" transform="translate(13.418 14.697)" fill="#62249e"/>
          <path id="Trazado_998446" data-name="Trazado 998446" d="M2.518,86.893,0,92.019h33.78L36.3,86.893Z" transform="translate(0 14.142)" fill="#62249e"/>
          <path id="Trazado_998447" data-name="Trazado 998447" d="M131.16,33.711H98.809l2.537-5.745H133.7Z" transform="translate(13.977 4.539)" fill="#62249e"/>
          <path id="Trazado_998448" data-name="Trazado 998448" d="M45.981,13.965H3.483L6.02,8.221h42.5Z" transform="translate(0.935 2.207)" fill="#62249e"/>
          <g id="Grupo_1179060" data-name="Grupo 1179060" transform="translate(0)">
            <g id="Grupo_1179059" data-name="Grupo 1179059" clip-path="url(#clip-path)">
              <path id="Trazado_998449" data-name="Trazado 998449" d="M74.461,126.768A63.317,63.317,0,0,1,12.49,49.237H4.026A71.853,71.853,0,0,0,130.42,108.291H119.338a63.5,63.5,0,0,1-44.877,18.477" transform="translate(0.445 8.185)" fill="#62249e"/>
              <path id="Trazado_998450" data-name="Trazado 998450" d="M110.835,89.568h9.4c.755-1.5,1.441-3.033,2.091-4.588h-9.039c-.76,1.565-1.573,3.1-2.454,4.588" transform="translate(18.887 14.126)" fill="#62249e"/>
              <path id="Trazado_998451" data-name="Trazado 998451" d="M145.839,71.593A71.893,71.893,0,0,0,5.373,50.3h8.722A63.623,63.623,0,0,1,137.577,71.593a62.852,62.852,0,0,1-4.591,23.629h8.808a71.048,71.048,0,0,0,4.045-23.629" transform="translate(0.916)" fill="#62249e"/>
              <path id="Trazado_998452" data-name="Trazado 998452" d="M108.562,81.649v3.885h5.115q.927-1.909,1.726-3.885Z" transform="translate(18.499 13.573)" fill="#62249e"/>
              <path id="Trazado_998453" data-name="Trazado 998453" d="M129.252,81.649h-7.1q-.693,1.97-1.495,3.885h8.6Z" transform="translate(20.56 13.573)" fill="#62249e"/>
            </g>
          </g>
          <path id="Trazado_998444" data-name="Trazado 998444" d="M3.8,37.025,0,44.77H23l3.805-7.745Z" transform="translate(0 5.957)" fill="#62249e"/>
        </g>
      </g>
    </g>
    <g id="Grupo_1212993" data-name="Grupo 1212993" transform="translate(342.631 10127.766)">
      <g id="Grupo_1212992" data-name="Grupo 1212992" clip-path="url(#clip-path-2)">
        <path id="Trazado_1285847" data-name="Trazado 1285847" d="M72.382,61.685,62,61.719a1.146,1.146,0,0,1-1.127-1.029A1.093,1.093,0,0,1,62,59.492l10.543-.04a8.915,8.915,0,0,0,.064-3.033l-70.3,0a8.678,8.678,0,0,0-.043,3.046l54.5.021A1.127,1.127,0,0,1,57.9,60.5,1.112,1.112,0,0,1,56.81,61.7l-7.234.1,3.1,5.821c1.972.371,6-.978,6,2.084,0,1.926.524,5.15-1.856,5.151l-25.455.008a1.076,1.076,0,0,1-1.134-1.075,1,1,0,0,1,1.112-1.07L56.339,72.7a7.4,7.4,0,0,0,0-2.782l-38.176,0a9.412,9.412,0,0,0-.005,2.727l8.285.08c.59.006.838.645.827,1.03a1.086,1.086,0,0,1-1.062,1.083l-8.429.01a1.859,1.859,0,0,1-1.914-1.851l-.012-3.312a1.863,1.863,0,0,1,1.732-2l4.6-.081,3.111-5.846L2.617,61.707A2.6,2.6,0,0,1,0,58.926L.007,18.051a2.42,2.42,0,0,1,2.119-2.33l20.567-.077a14.725,14.725,0,1,1,29.4-.06c2.378.2,4.687.035,7.125.083a1.118,1.118,0,0,1,1.237.922A1.078,1.078,0,0,1,59.431,17.8l-7.649.042a15.484,15.484,0,0,1-3.439,6.744A28.2,28.2,0,0,1,65.588,50.529a1.175,1.175,0,0,1-1.26,1.141l-9.351-.021a1.155,1.155,0,0,1-1.164-1.125,16.351,16.351,0,0,0-32.7-.017,1.186,1.186,0,0,1-1.226,1.161l-9.353-.007A1.146,1.146,0,0,1,9.34,50.515,28.053,28.053,0,0,1,16.2,32.121a1.107,1.107,0,0,1,1.565-.181c1.464,1.139-1.574,3.012-2.133,4.719l6.354,3.66a19.006,19.006,0,0,1,5.249-5.231l-3.672-6.377c-1.107.381-2.712,2.583-3.664,1.112a1.125,1.125,0,0,1,.4-1.563,32.155,32.155,0,0,1,6.154-3.665,15.287,15.287,0,0,1-3.494-6.78l-20.771.029V54.268l70.461,0,.018-36.4-8.107-.065a1.074,1.074,0,1,1,.006-2.142l7.975.032a2.446,2.446,0,0,1,2.312,2.577L74.85,59.158a2.5,2.5,0,0,1-2.469,2.527M49.907,14.725A12.527,12.527,0,1,0,37.38,27.253,12.527,12.527,0,0,0,49.907,14.725m-4.1,19.2,3.624-6.346a11.021,11.021,0,0,0-2.943-1.295,15.152,15.152,0,0,1-7.845,3.135,7.607,7.607,0,0,0,0,2.638A19.725,19.725,0,0,1,45.8,33.926m-9.519-1.865a6.606,6.606,0,0,0-.04-2.63,15,15,0,0,1-7.92-3.1,9.562,9.562,0,0,0-2.834,1.284l3.686,6.344a18.254,18.254,0,0,1,7.109-1.895M53.05,40.327,59.312,36.6a25.859,25.859,0,0,0-7.916-7.92l-3.722,6.391a22.639,22.639,0,0,1,5.375,5.259m-34.1,9.008a20.122,20.122,0,0,1,1.889-7.118l-6.374-3.665a25.207,25.207,0,0,0-2.886,10.865Zm37.031.082,7.4-.029a25.843,25.843,0,0,0-2.955-10.83l-6.371,3.71a18.971,18.971,0,0,1,1.926,7.148M48.025,67.549a2.645,2.645,0,0,0,2.063-.078l-3.079-5.733H27.852l-3.09,5.807a3.44,3.44,0,0,0,2.075.008,15.233,15.233,0,0,1,21.187,0m-3.475.059a12.832,12.832,0,0,0-14.241,0Z" transform="translate(0 0)" fill="#fff"/>
        <path id="Trazado_1285848" data-name="Trazado 1285848" d="M146.377,165.8a4.259,4.259,0,1,1-2.232-.013l.042-4.588a1.079,1.079,0,0,1,1.1-1.156,1.11,1.11,0,0,1,1.088,1.171Zm.975,4.162a2.076,2.076,0,1,0-2.076,2.076,2.076,2.076,0,0,0,2.076-2.076" transform="translate(-108.008 -122.605)" fill="#fff"/>
        <path id="Trazado_1285849" data-name="Trazado 1285849" d="M118.96,40.145a3.077,3.077,0,0,1,.427-4.4,3.187,3.187,0,0,1,4.465.508c.728.853,1.4,1.663,2.214,2.443l5.708-7.246a3.035,3.035,0,0,1,4.26-.469,3.141,3.141,0,0,1,.594,4.374l-8,10.24a3.035,3.035,0,0,1-4.691.163Zm1.751-1.293,4.651,5.254c.324.366,1.123.662,1.512.164l7.982-10.209a.992.992,0,0,0-.091-1.284.963.963,0,0,0-1.349.1l-6.31,8.1a1.256,1.256,0,0,1-1.094.542,1.364,1.364,0,0,1-.975-.6l-3.079-3.439a.927.927,0,0,0-1.268.055,1,1,0,0,0,.021,1.316" transform="translate(-90.566 -23.223)" fill="#fff"/>
      </g>
    </g>
  </g>
</svg>
